<mxfile host="65bd71144e">
    <diagram id="PZuB0uPy9u2MeAq33lir" name="第 1 页">
        <mxGraphModel dx="1002" dy="962" grid="0" gridSize="10" guides="1" tooltips="1" connect="1" arrows="1" fold="1" page="0" pageScale="1" pageWidth="1169" pageHeight="1654" background="#ffffff" math="0" shadow="0">
            <root>
                <mxCell id="0"/>
                <mxCell id="1" parent="0"/>
                <mxCell id="2" value="Object显式原型对象&#10;0xa00" style="shape=table;startSize=30;container=1;collapsible=0;childLayout=tableLayout;fontStyle=1;align=center;rounded=0;labelBorderColor=none;sketch=0;strokeColor=#000000;fontColor=#000000;fillColor=none;" vertex="1" parent="1">
                    <mxGeometry x="326" y="65" width="207" height="110" as="geometry"/>
                </mxCell>
                <mxCell id="3" value="" style="shape=tableRow;horizontal=0;startSize=0;swimlaneHead=0;swimlaneBody=0;top=0;left=0;bottom=0;right=0;collapsible=0;dropTarget=0;fillColor=none;points=[[0,0.5],[1,0.5]];portConstraint=eastwest;rounded=0;labelBorderColor=#000000;sketch=0;strokeColor=#000000;fontColor=#000000;" vertex="1" parent="2">
                    <mxGeometry y="30" width="207" height="40" as="geometry"/>
                </mxCell>
                <mxCell id="4" value="constructor" style="shape=partialRectangle;html=1;whiteSpace=wrap;connectable=0;fillColor=none;top=0;left=0;bottom=0;right=0;overflow=hidden;rounded=0;labelBorderColor=none;sketch=0;strokeColor=default;fontColor=#000000;" vertex="1" parent="3">
                    <mxGeometry width="104" height="40" as="geometry">
                        <mxRectangle width="104" height="40" as="alternateBounds"/>
                    </mxGeometry>
                </mxCell>
                <mxCell id="5" value="0x100" style="shape=partialRectangle;html=1;whiteSpace=wrap;connectable=0;fillColor=none;top=0;left=0;bottom=0;right=0;overflow=hidden;rounded=0;labelBorderColor=none;sketch=0;strokeColor=#000000;fontColor=#000000;" vertex="1" parent="3">
                    <mxGeometry x="104" width="103" height="40" as="geometry">
                        <mxRectangle width="103" height="40" as="alternateBounds"/>
                    </mxGeometry>
                </mxCell>
                <mxCell id="18" value="" style="shape=tableRow;horizontal=0;startSize=0;swimlaneHead=0;swimlaneBody=0;top=0;left=0;bottom=0;right=0;collapsible=0;dropTarget=0;fillColor=none;points=[[0,0.5],[1,0.5]];portConstraint=eastwest;rounded=0;labelBorderColor=#000000;sketch=0;strokeColor=#000000;fontColor=#000000;" vertex="1" parent="2">
                    <mxGeometry y="70" width="207" height="40" as="geometry"/>
                </mxCell>
                <mxCell id="19" value="[[prototype]]" style="shape=partialRectangle;html=1;whiteSpace=wrap;connectable=0;fillColor=none;top=0;left=0;bottom=0;right=0;overflow=hidden;rounded=0;labelBorderColor=none;sketch=0;strokeColor=default;fontColor=#000000;" vertex="1" parent="18">
                    <mxGeometry width="104" height="40" as="geometry">
                        <mxRectangle width="104" height="40" as="alternateBounds"/>
                    </mxGeometry>
                </mxCell>
                <mxCell id="20" value="null" style="shape=partialRectangle;html=1;whiteSpace=wrap;connectable=0;fillColor=none;top=0;left=0;bottom=0;right=0;overflow=hidden;rounded=0;labelBorderColor=none;sketch=0;strokeColor=#000000;fontColor=#000000;" vertex="1" parent="18">
                    <mxGeometry x="104" width="103" height="40" as="geometry">
                        <mxRectangle width="103" height="40" as="alternateBounds"/>
                    </mxGeometry>
                </mxCell>
                <mxCell id="6" value="函数对象：function Object () {}&#10;0x100" style="shape=table;startSize=30;container=1;collapsible=0;childLayout=tableLayout;fontStyle=1;align=center;rounded=0;labelBorderColor=none;sketch=0;strokeColor=#000000;fontColor=#000000;fillColor=none;" vertex="1" parent="1">
                    <mxGeometry y="65" width="213" height="113" as="geometry"/>
                </mxCell>
                <mxCell id="7" value="" style="shape=tableRow;horizontal=0;startSize=0;swimlaneHead=0;swimlaneBody=0;top=0;left=0;bottom=0;right=0;collapsible=0;dropTarget=0;fillColor=none;points=[[0,0.5],[1,0.5]];portConstraint=eastwest;rounded=0;labelBorderColor=#000000;sketch=0;strokeColor=#000000;fontColor=#000000;" vertex="1" parent="6">
                    <mxGeometry y="30" width="213" height="28" as="geometry"/>
                </mxCell>
                <mxCell id="8" value="name" style="shape=partialRectangle;html=1;whiteSpace=wrap;connectable=0;fillColor=none;top=0;left=0;bottom=0;right=0;overflow=hidden;rounded=0;labelBorderColor=none;sketch=0;strokeColor=default;fontColor=#000000;" vertex="1" parent="7">
                    <mxGeometry width="107" height="28" as="geometry">
                        <mxRectangle width="107" height="28" as="alternateBounds"/>
                    </mxGeometry>
                </mxCell>
                <mxCell id="9" value="'Object'" style="shape=partialRectangle;html=1;whiteSpace=wrap;connectable=0;fillColor=none;top=0;left=0;bottom=0;right=0;overflow=hidden;rounded=0;labelBorderColor=none;sketch=0;strokeColor=#000000;fontColor=#000000;" vertex="1" parent="7">
                    <mxGeometry x="107" width="106" height="28" as="geometry">
                        <mxRectangle width="106" height="28" as="alternateBounds"/>
                    </mxGeometry>
                </mxCell>
                <mxCell id="10" value="" style="shape=tableRow;horizontal=0;startSize=0;swimlaneHead=0;swimlaneBody=0;top=0;left=0;bottom=0;right=0;collapsible=0;dropTarget=0;fillColor=none;points=[[0,0.5],[1,0.5]];portConstraint=eastwest;rounded=0;labelBorderColor=none;sketch=0;strokeColor=#000000;fontColor=#000000;labelBackgroundColor=default;" vertex="1" parent="6">
                    <mxGeometry y="58" width="213" height="27" as="geometry"/>
                </mxCell>
                <mxCell id="11" value="length" style="shape=partialRectangle;html=1;whiteSpace=wrap;connectable=0;fillColor=none;top=0;left=0;bottom=0;right=0;overflow=hidden;rounded=0;labelBorderColor=none;sketch=0;strokeColor=#000000;fontColor=#000000;" vertex="1" parent="10">
                    <mxGeometry width="107" height="27" as="geometry">
                        <mxRectangle width="107" height="27" as="alternateBounds"/>
                    </mxGeometry>
                </mxCell>
                <mxCell id="12" value="0" style="shape=partialRectangle;html=1;whiteSpace=wrap;connectable=0;fillColor=none;top=0;left=0;bottom=0;right=0;overflow=hidden;rounded=0;labelBorderColor=none;sketch=0;strokeColor=#000000;fontColor=#000000;" vertex="1" parent="10">
                    <mxGeometry x="107" width="106" height="27" as="geometry">
                        <mxRectangle width="106" height="27" as="alternateBounds"/>
                    </mxGeometry>
                </mxCell>
                <mxCell id="13" value="" style="shape=tableRow;horizontal=0;startSize=0;swimlaneHead=0;swimlaneBody=0;top=0;left=0;bottom=0;right=0;collapsible=0;dropTarget=0;fillColor=none;points=[[0,0.5],[1,0.5]];portConstraint=eastwest;rounded=0;labelBorderColor=#000000;sketch=0;strokeColor=#000000;fontColor=#000000;" vertex="1" parent="6">
                    <mxGeometry y="85" width="213" height="28" as="geometry"/>
                </mxCell>
                <mxCell id="14" value="prototype" style="shape=partialRectangle;html=1;whiteSpace=wrap;connectable=0;fillColor=none;top=0;left=0;bottom=0;right=0;overflow=hidden;rounded=0;labelBorderColor=none;sketch=0;strokeColor=#000000;fontColor=#000000;" vertex="1" parent="13">
                    <mxGeometry width="107" height="28" as="geometry">
                        <mxRectangle width="107" height="28" as="alternateBounds"/>
                    </mxGeometry>
                </mxCell>
                <mxCell id="15" value="0xa00" style="shape=partialRectangle;html=1;whiteSpace=wrap;connectable=0;fillColor=none;top=0;left=0;bottom=0;right=0;overflow=hidden;rounded=0;labelBorderColor=none;sketch=0;strokeColor=#000000;fontColor=#000000;" vertex="1" parent="13">
                    <mxGeometry x="107" width="106" height="28" as="geometry">
                        <mxRectangle width="106" height="28" as="alternateBounds"/>
                    </mxGeometry>
                </mxCell>
                <mxCell id="16" value="" style="endArrow=classic;html=1;strokeColor=#d79b00;fontColor=#000000;fillColor=#ffcd28;strokeWidth=2;gradientColor=#ffa500;entryX=0.004;entryY=0.1;entryDx=0;entryDy=0;exitX=1;exitY=0.5;exitDx=0;exitDy=0;entryPerimeter=0;" edge="1" parent="1" target="2">
                    <mxGeometry width="50" height="50" relative="1" as="geometry">
                        <mxPoint x="191" y="163.75" as="sourcePoint"/>
                        <mxPoint x="323" y="79.25" as="targetPoint"/>
                    </mxGeometry>
                </mxCell>
                <mxCell id="17" value="" style="edgeStyle=elbowEdgeStyle;elbow=vertical;endArrow=classic;html=1;curved=0;rounded=0;endSize=8;startSize=8;exitX=0.916;exitY=0.005;exitDx=0;exitDy=0;exitPerimeter=0;fillColor=#ffcd28;gradientColor=#ffa500;strokeColor=#d79b00;strokeWidth=2;entryX=0.798;entryY=0.012;entryDx=0;entryDy=0;entryPerimeter=0;" edge="1" parent="1" source="3" target="6">
                    <mxGeometry width="50" height="50" relative="1" as="geometry">
                        <mxPoint x="559" y="109" as="sourcePoint"/>
                        <mxPoint x="168" y="56" as="targetPoint"/>
                        <Array as="points">
                            <mxPoint x="359" y="30"/>
                        </Array>
                    </mxGeometry>
                </mxCell>
                <mxCell id="21" value="堆内存" style="shape=partialRectangle;html=1;whiteSpace=wrap;connectable=0;fillColor=none;top=0;left=0;bottom=0;right=0;overflow=hidden;rounded=0;labelBorderColor=none;sketch=0;strokeColor=default;fontColor=#000000;" vertex="1" parent="1">
                    <mxGeometry x="234" y="-13" width="107" height="28" as="geometry">
                        <mxRectangle width="107" height="28" as="alternateBounds"/>
                    </mxGeometry>
                </mxCell>
            </root>
        </mxGraphModel>
    </diagram>
</mxfile>